{
    "asset" : {
        "generator" : "Khronos glTF Blender I/O v3.4.50",
        "version" : "2.0"
    },
    "scene" : 0,
    "scenes" : [
        {
            "name" : "Scene",
            "nodes" : [
                0
            ]
        }
    ],
    "nodes" : [
        {
            "mesh" : 0,
            "name" : "Cylinder"
        }
    ],
    "meshes" : [
        {
            "name" : "Cylinder.001",
            "primitives" : [
                {
                    "attributes" : {
                        "POSITION" : 0,
                        "TEXCOORD_0" : 1,
                        "NORMAL" : 2
                    },
                    "indices" : 3
                }
            ]
        }
    ],
    "accessors" : [
        {
            "bufferView" : 0,
            "componentType" : 5126,
            "count" : 7406,
            "max" : [
                0.04670188948512077,
                0.07997927069664001,
                0.04670188948512077
            ],
            "min" : [
                -0.04670188948512077,
                0,
                -0.046701885759830475
            ],
            "type" : "VEC3"
        },
        {
            "bufferView" : 1,
            "componentType" : 5126,
            "count" : 7406,
            "type" : "VEC2"
        },
        {
            "bufferView" : 2,
            "componentType" : 5126,
            "count" : 7406,
            "type" : "VEC3"
        },
        {
            "bufferView" : 3,
            "componentType" : 5123,
            "count" : 39936,
            "type" : "SCALAR"
        }
    ],
    "bufferViews" : [
        {
            "buffer" : 0,
            "byteLength" : 88872,
            "byteOffset" : 0,
            "target" : 34962
        },
        {
            "buffer" : 0,
            "byteLength" : 59248,
            "byteOffset" : 88872,
            "target" : 34962
        },
        {
            "buffer" : 0,
            "byteLength" : 88872,
            "byteOffset" : 148120,
            "target" : 34962
        },
        {
            "buffer" : 0,
            "byteLength" : 79872,
            "byteOffset" : 236992,
            "target" : 34963
        }
    ],
    "buffers" : [
        {
            "byteLength" : 316864,
            "uri" : "data:application/octet-stream;base64,"
        }
    ]
}
