<svg width="18" height="18" viewBox="0 0 18 18" fill="none" xmlns="http://www.w3.org/2000/svg">
<path d="M16.2169 1.78312C16.008 1.57414 15.7599 1.40836 15.4869 1.29525C15.2139 1.18215 14.9212 1.12393 14.6257 1.12393C14.3302 1.12393 14.0376 1.18215 13.7646 1.29525C13.4916 1.40836 13.2435 1.57414 13.0346 1.78312C13.0275 1.79015 13.0205 1.79719 13.0142 1.80492L9.15331 6.10664L8.50784 5.45906C8.35113 5.30227 8.16506 5.17789 7.96027 5.09303C7.75547 5.00817 7.53596 4.96449 7.31428 4.96449C7.0926 4.96449 6.8731 5.00817 6.6683 5.09303C6.46351 5.17789 6.27744 5.30227 6.12073 5.45906L0.728465 10.852C0.623055 10.9575 0.563843 11.1005 0.563843 11.2496C0.563843 11.3988 0.623055 11.5418 0.728465 11.6473L6.35346 17.2723C6.45894 17.3777 6.60196 17.4369 6.75108 17.4369C6.9002 17.4369 7.04322 17.3777 7.1487 17.2723L12.541 11.8828C12.6978 11.7261 12.8221 11.54 12.907 11.3352C12.9919 11.1304 13.0355 10.9109 13.0355 10.6893C13.0355 10.4676 12.9919 10.2481 12.907 10.0433C12.8221 9.83848 12.6978 9.65241 12.541 9.4957L11.8934 8.84883L16.1951 4.98797C16.2029 4.98148 16.2102 4.97443 16.2169 4.96687C16.4261 4.75791 16.5921 4.50976 16.7053 4.23661C16.8185 3.96347 16.8768 3.67068 16.8768 3.375C16.8768 3.07931 16.8185 2.78653 16.7053 2.51338C16.5921 2.24024 16.4261 1.99209 16.2169 1.78312ZM6.75003 16.0798L5.57721 14.9062L7.148 13.3348C7.24903 13.2284 7.30453 13.0868 7.30265 12.9401C7.30077 12.7935 7.24167 12.6533 7.13794 12.5496C7.03422 12.4459 6.89407 12.3868 6.7474 12.3849C6.60072 12.383 6.45911 12.4385 6.35276 12.5395L4.78128 14.1103L3.88971 13.2187L5.4605 11.6473C5.56153 11.5409 5.61703 11.3993 5.61515 11.2526C5.61327 11.106 5.55417 10.9658 5.45044 10.8621C5.34672 10.7584 5.20658 10.6993 5.0599 10.6974C4.91322 10.6955 4.77161 10.751 4.66526 10.852L3.09378 12.4228L1.92026 11.25L5.06253 8.10773L9.89229 12.9375L6.75003 16.0798ZM15.4308 4.15969L11.1417 8.0093C11.028 8.11142 10.9363 8.23564 10.8722 8.37438C10.8081 8.51312 10.7729 8.66347 10.7689 8.81625C10.7648 8.96903 10.7919 9.12104 10.8485 9.263C10.9051 9.40497 10.9901 9.53391 11.0982 9.64195L11.745 10.2895C11.8504 10.395 11.9096 10.538 11.9096 10.6871C11.9096 10.8363 11.8504 10.9793 11.745 11.0848L10.6903 12.1395L5.85846 7.3125L6.91315 6.25781C7.01863 6.1524 7.16165 6.09319 7.31077 6.09319C7.45989 6.09319 7.60291 6.1524 7.70839 6.25781L8.35596 6.90469C8.46401 7.01278 8.59295 7.09773 8.73491 7.15434C8.87688 7.21095 9.02889 7.23805 9.18167 7.23397C9.33445 7.22989 9.48479 7.19472 9.62353 7.13061C9.76227 7.06651 9.8865 6.9748 9.98862 6.86109L13.8382 2.57203C14.0509 2.36996 14.3341 2.25897 14.6275 2.26272C14.9209 2.26648 15.2011 2.38468 15.4086 2.59214C15.616 2.79959 15.7342 3.07987 15.738 3.37323C15.7418 3.66658 15.6308 3.9498 15.4287 4.1625L15.4308 4.15969Z" fill="#6F798C"/>
</svg>
