<svg width="18" height="18" viewBox="0 0 18 18" fill="none" xmlns="http://www.w3.org/2000/svg">
<path d="M2.97708 10.852L8.60209 5.22702C8.65433 5.17472 8.71636 5.13323 8.78465 5.10493C8.85294 5.07662 8.92613 5.06205 9.00005 5.06205C9.07398 5.06205 9.14717 5.07662 9.21546 5.10493C9.28374 5.13323 9.34578 5.17472 9.39802 5.22702L15.023 10.852C15.1286 10.9576 15.1879 11.1007 15.1879 11.25C15.1879 11.3993 15.1286 11.5424 15.023 11.648C14.9175 11.7535 14.7743 11.8128 14.6251 11.8128C14.4758 11.8128 14.3326 11.7535 14.2271 11.648L9.00005 6.42023L3.77302 11.648C3.72076 11.7002 3.65872 11.7417 3.59043 11.77C3.52215 11.7982 3.44896 11.8128 3.37505 11.8128C3.30114 11.8128 3.22796 11.7982 3.15967 11.77C3.09139 11.7417 3.02935 11.7002 2.97708 11.648C2.92482 11.5957 2.88337 11.5337 2.85508 11.4654C2.8268 11.3971 2.81224 11.3239 2.81224 11.25C2.81224 11.1761 2.8268 11.1029 2.85508 11.0346C2.88337 10.9663 2.92482 10.9043 2.97708 10.852Z" fill="#404754"/>
</svg>
