<svg width="18" height="18" viewBox="0 0 18 18" fill="none" xmlns="http://www.w3.org/2000/svg">
<path d="M9 1.6875C7.55373 1.6875 6.13993 2.11637 4.9374 2.91988C3.73486 3.72339 2.7976 4.86544 2.24413 6.20163C1.69067 7.53781 1.54586 9.00811 1.82801 10.4266C2.11017 11.8451 2.80661 13.148 3.82928 14.1707C4.85196 15.1934 6.15492 15.8898 7.57341 16.172C8.99189 16.4541 10.4622 16.3093 11.7984 15.7559C13.1346 15.2024 14.2766 14.2651 15.0801 13.0626C15.8836 11.8601 16.3125 10.4463 16.3125 9C16.3105 7.06123 15.5394 5.20246 14.1685 3.83154C12.7975 2.46063 10.9388 1.68955 9 1.6875ZM9.5625 2.83852C9.94331 2.87327 10.32 2.94389 10.6875 3.04945V14.9534C10.32 15.0589 9.94331 15.1295 9.5625 15.1643V2.83852ZM11.8125 3.48961C12.2134 3.69487 12.5907 3.94338 12.9375 4.2307V13.7693C12.5907 14.0566 12.2134 14.3051 11.8125 14.5104V3.48961ZM2.8125 9C2.81436 7.45692 3.392 5.97008 4.43238 4.83048C5.47276 3.69088 6.90098 2.98055 8.4375 2.83852V15.1615C6.90098 15.0195 5.47276 14.3091 4.43238 13.1695C3.392 12.0299 2.81436 10.5431 2.8125 9ZM14.0625 12.5536V5.44641C14.7946 6.48677 15.1875 7.72786 15.1875 9C15.1875 10.2721 14.7946 11.5132 14.0625 12.5536Z" fill="#6F798C"/>
</svg>
