<svg width="18" height="18" viewBox="0 0 18 18" fill="none" xmlns="http://www.w3.org/2000/svg">
<path fill-rule="evenodd" clip-rule="evenodd" d="M4.9374 2.91988C6.13993 2.11637 7.55373 1.6875 9 1.6875C10.9388 1.68955 12.7975 2.46063 14.1685 3.83154C15.5394 5.20246 16.3105 7.06123 16.3125 9C16.3125 10.4463 15.8836 11.8601 15.0801 13.0626C14.2766 14.2651 13.1346 15.2024 11.7984 15.7559C10.4622 16.3093 8.99189 16.4541 7.57341 16.172C6.15492 15.8898 4.85196 15.1934 3.82928 14.1707C2.80661 13.148 2.11017 11.8451 1.82801 10.4266C1.54586 9.00811 1.69067 7.53781 2.24413 6.20163C2.7976 4.86544 3.73486 3.72339 4.9374 2.91988ZM5.56241 14.1447C6.57994 14.8246 7.77623 15.1875 9 15.1875C9.57582 15.1868 10.1433 15.106 10.6875 14.9512V13.4465L7.79767 13.1576L8.11646 10.926L7.03109 10.0577L5.52036 9.49119L5.2691 11.25H3.23609C3.25148 11.2894 3.26728 11.3287 3.2835 11.3679C3.75182 12.4985 4.54488 13.4648 5.56241 14.1447ZM2.91563 10.125H4.2934L4.60464 7.94629L7.10573 8.88421L7.72321 8.01973L6.1875 7.80035V5.67017L4.52915 4.72255C3.71599 5.57246 3.16124 6.63737 2.93139 7.79288C2.7776 8.56608 2.77372 9.35747 2.91563 10.125ZM5.43365 3.94368C6.13748 3.44726 6.94053 3.10093 7.79288 2.93139C8.99314 2.69265 10.2372 2.81518 11.3679 3.2835C12.2813 3.66185 13.0875 4.25217 13.7221 5.00157L13.5803 6.27758L12.0192 5.75723L11.5434 7.18474L9.81433 5.70267L8.51988 6.99712L7.3125 6.82464V5.01731L5.43365 3.94368ZM14.6908 6.57106L14.5447 7.78491L12.7308 7.18026L12.0816 9.12775L9.87317 7.23482L9.14942 7.95857L8.07982 9.456L9.32104 10.449L9.07733 12.1549L11.8125 12.4284V14.5086C12.3837 14.2167 12.9112 13.8352 13.3732 13.3732C14.5331 12.2132 15.1856 10.6405 15.1875 9C15.1875 8.1612 15.017 7.33532 14.6908 6.57106Z" fill="#6F798C"/>
</svg>
