<svg width="32" height="32" viewBox="0 0 32 32" fill="none" xmlns="http://www.w3.org/2000/svg">
<path fill-rule="evenodd" clip-rule="evenodd" d="M8.77759 5.1909C10.9154 3.76244 13.4288 3 16 3C19.4467 3.00364 22.7512 4.37445 25.1884 6.81163C27.6256 9.24882 28.9964 12.5533 29 16C29 18.5712 28.2376 21.0846 26.8091 23.2224C25.3807 25.3603 23.3503 27.0265 20.9749 28.0104C18.5995 28.9944 15.9856 29.2518 13.4638 28.7502C10.9421 28.2486 8.6257 27.0105 6.80762 25.1924C4.98953 23.3743 3.75141 21.0579 3.2498 18.5362C2.74819 16.0144 3.00563 13.4006 3.98957 11.0251C4.97351 8.64968 6.63975 6.61935 8.77759 5.1909ZM9.88873 25.1462C11.6977 26.3549 13.8244 27 16 27C17.0237 26.9988 18.0325 26.8552 19 26.58V23.905L13.8625 23.3912L14.4293 19.424L12.4997 17.8804L9.81398 16.8732L9.3673 20H5.75305C5.78041 20.0701 5.8085 20.1399 5.83733 20.2095C6.66989 22.2195 8.07979 23.9375 9.88873 25.1462ZM5.18335 18H7.6327L8.18602 14.1267L12.6324 15.7941L13.7302 14.2573L11 13.8673V10.0803L8.05182 8.39564C6.6062 9.90659 5.61998 11.7998 5.21137 13.854C4.93795 15.2286 4.93106 16.6355 5.18335 18ZM9.65982 7.01099C10.9111 6.12846 12.3387 5.51277 13.854 5.21136C15.9878 4.78692 18.1995 5.00476 20.2095 5.83733C21.8334 6.50996 23.2667 7.55941 24.3948 8.89169L24.1427 11.1601L21.3675 10.2351L20.5216 12.7729L17.4477 10.1381L15.1464 12.4393L13 12.1327V8.91967L9.65982 7.01099ZM26.117 11.6819L25.8573 13.8398L22.6325 12.7649L21.4784 16.2271L17.5523 12.8619L16.2656 14.1486L14.3641 16.8107L16.5707 18.5759L16.1375 21.6087L21 22.095V25.7931C22.0154 25.2741 22.9532 24.5959 23.7745 23.7745C25.8367 21.7123 26.9967 18.9164 27 16C27 14.5088 26.6969 13.0406 26.117 11.6819Z" fill="black"/>
</svg>
