<svg width="18" height="18" viewBox="0 0 18 18" fill="none" xmlns="http://www.w3.org/2000/svg">
<path d="M17.4375 8.4375V9C17.4373 9.71546 17.1644 10.4039 16.6744 10.9253C16.1844 11.4466 15.5142 11.7616 14.8001 11.8062C14.4164 12.8915 13.7631 13.8615 12.9016 14.625H14.625C14.7742 14.625 14.9173 14.6843 15.0227 14.7898C15.1282 14.8952 15.1875 15.0383 15.1875 15.1875C15.1875 15.3367 15.1282 15.4798 15.0227 15.5852C14.9173 15.6907 14.7742 15.75 14.625 15.75H2.25C2.10082 15.75 1.95774 15.6907 1.85225 15.5852C1.74676 15.4798 1.6875 15.3367 1.6875 15.1875C1.6875 15.0383 1.74676 14.8952 1.85225 14.7898C1.95774 14.6843 2.10082 14.625 2.25 14.625H3.97547C3.25779 13.9909 2.68277 13.2119 2.28838 12.3392C1.89398 11.4665 1.68918 10.5201 1.6875 9.5625V6.1875C1.6875 6.03832 1.74676 5.89524 1.85225 5.78975C1.95774 5.68426 2.10082 5.625 2.25 5.625H14.625C15.3709 5.625 16.0863 5.92132 16.6137 6.44876C17.1412 6.97621 17.4375 7.69158 17.4375 8.4375ZM14.0625 6.75H2.8125V9.5625C2.81467 10.6186 3.11314 11.653 3.67397 12.5479C4.2348 13.4429 5.03549 14.1625 5.985 14.625H10.89C11.8395 14.1625 12.6402 13.4429 13.201 12.5479C13.7619 11.653 14.0603 10.6186 14.0625 9.5625V6.75ZM16.3125 8.4375C16.3124 8.08862 16.2042 7.74836 16.0027 7.46353C15.8012 7.1787 15.5164 6.96332 15.1875 6.84703V9.5625C15.1871 9.91573 15.1589 10.2684 15.1031 10.6172C15.4521 10.5141 15.7585 10.3009 15.9764 10.0095C16.1944 9.71801 16.3122 9.36392 16.3125 9V8.4375Z" fill="#6F798C"/>
</svg>
