<svg width="18" height="18" viewBox="0 0 18 18" fill="none" xmlns="http://www.w3.org/2000/svg">
<path d="M12.9298 10.7817C12.7839 11.5964 12.3919 12.3469 11.8066 12.9321C11.2213 13.5173 10.4708 13.9091 9.65602 14.0548C9.62509 14.0597 9.59382 14.0623 9.5625 14.0625C9.4214 14.0625 9.28547 14.0094 9.18166 13.9138C9.07786 13.8183 9.01376 13.6872 9.00208 13.5466C8.9904 13.406 9.03199 13.2661 9.1186 13.1547C9.20522 13.0433 9.33053 12.9686 9.46969 12.9452C10.6348 12.7491 11.6234 11.7605 11.8209 10.5933C11.8459 10.4462 11.9283 10.315 12.05 10.2286C12.1718 10.1422 12.3228 10.1078 12.4699 10.1327C12.6171 10.1577 12.7482 10.2401 12.8346 10.3619C12.921 10.4836 12.9555 10.6346 12.9305 10.7817H12.9298ZM15.1875 10.125C15.1875 11.766 14.5356 13.3399 13.3752 14.5002C12.2148 15.6606 10.641 16.3125 9 16.3125C7.35897 16.3125 5.78516 15.6606 4.62478 14.5002C3.4644 13.3399 2.8125 11.766 2.8125 10.125C2.8125 8.16188 3.58594 6.15446 5.10891 4.15899C5.15711 4.09581 5.21816 4.04356 5.28803 4.00568C5.3579 3.9678 5.43501 3.94516 5.51426 3.93925C5.59352 3.93334 5.67313 3.94429 5.74784 3.97138C5.82256 3.99847 5.89068 4.04108 5.94773 4.09641L7.64367 5.74243L9.19055 1.49485C9.22145 1.41014 9.27227 1.33409 9.33872 1.27313C9.40517 1.21217 9.4853 1.16807 9.57236 1.14457C9.65942 1.12106 9.75086 1.11883 9.83896 1.13807C9.92706 1.1573 10.0093 1.19744 10.0786 1.25509C11.6163 2.53126 15.1875 5.94493 15.1875 10.125ZM14.0625 10.125C14.0625 6.88431 11.546 4.08376 9.96961 2.64868L8.40375 6.94266C8.37161 7.03086 8.31792 7.10961 8.24755 7.17173C8.17719 7.23386 8.0924 7.27739 8.0009 7.29836C7.90941 7.31933 7.81412 7.31707 7.72373 7.29179C7.63333 7.2665 7.5507 7.219 7.48336 7.1536L5.62922 5.35501C4.50633 6.97571 3.9375 8.57813 3.9375 10.125C3.9375 11.4677 4.47087 12.7553 5.42027 13.7047C6.36967 14.6541 7.65734 15.1875 9 15.1875C10.3427 15.1875 11.6303 14.6541 12.5797 13.7047C13.5291 12.7553 14.0625 11.4677 14.0625 10.125Z" fill="#6F798C"/>
</svg>
