<svg width="18" height="18" viewBox="0 0 18 18" fill="none" xmlns="http://www.w3.org/2000/svg">
<path d="M5.06251 6.1875V2.8125C5.06251 2.66332 5.12177 2.52024 5.22726 2.41475C5.33275 2.30926 5.47582 2.25 5.62501 2.25C5.77419 2.25 5.91726 2.30926 6.02275 2.41475C6.12824 2.52024 6.18751 2.66332 6.18751 2.8125V6.1875C6.18751 6.33669 6.12824 6.47976 6.02275 6.58525C5.91726 6.69074 5.77419 6.75 5.62501 6.75C5.47582 6.75 5.33275 6.69074 5.22726 6.58525C5.12177 6.47976 5.06251 6.33669 5.06251 6.1875ZM15.1875 2.8125V15.75C15.1875 15.8992 15.1282 16.0423 15.0228 16.1477C14.9173 16.2532 14.7742 16.3125 14.625 16.3125C14.4758 16.3125 14.3327 16.2532 14.2273 16.1477C14.1218 16.0423 14.0625 15.8992 14.0625 15.75V12.375H10.6875C10.5383 12.375 10.3952 12.3157 10.2898 12.2102C10.1843 12.1048 10.125 11.9617 10.125 11.8125C10.1511 10.4651 10.3213 9.12434 10.6327 7.81313C11.3203 4.96617 12.6239 3.05789 14.4035 2.2957C14.4891 2.25907 14.5823 2.24422 14.675 2.25249C14.7677 2.26077 14.8569 2.29191 14.9346 2.34312C15.0123 2.39434 15.0761 2.46402 15.1202 2.54594C15.1643 2.62786 15.1875 2.71945 15.1875 2.8125ZM14.0625 3.78985C11.8006 5.51742 11.3576 9.72563 11.2711 11.25H14.0625V3.78985ZM8.42977 2.72039C8.41875 2.64653 8.39314 2.57561 8.35442 2.51175C8.31571 2.44789 8.26466 2.39238 8.20427 2.34846C8.14388 2.30454 8.07534 2.27308 8.00266 2.25592C7.92998 2.23877 7.85461 2.23625 7.78095 2.24853C7.70729 2.26081 7.63681 2.28763 7.57362 2.32743C7.51044 2.36723 7.45581 2.41921 7.41292 2.48035C7.37004 2.54149 7.33976 2.61055 7.32385 2.68351C7.30793 2.75647 7.30671 2.83187 7.32024 2.90531L7.87501 6.2318C7.87501 6.82854 7.63795 7.40083 7.216 7.82279C6.79404 8.24475 6.22174 8.4818 5.62501 8.4818C5.02827 8.4818 4.45597 8.24475 4.03401 7.82279C3.61206 7.40083 3.37501 6.82854 3.37501 6.2318L3.92907 2.90531C3.9426 2.83187 3.94138 2.75647 3.92546 2.68351C3.90955 2.61055 3.87927 2.54149 3.83638 2.48035C3.7935 2.41921 3.73887 2.36723 3.67568 2.32743C3.6125 2.28763 3.54202 2.26081 3.46836 2.24853C3.3947 2.23625 3.31933 2.23877 3.24665 2.25592C3.17397 2.27308 3.10543 2.30454 3.04504 2.34846C2.98464 2.39238 2.9336 2.44789 2.89488 2.51175C2.85617 2.57561 2.83055 2.64653 2.81954 2.72039L2.25704 6.09539C2.25222 6.12586 2.24987 6.15666 2.25001 6.1875C2.25113 6.98471 2.53401 7.75587 3.04866 8.3647C3.56331 8.97353 4.27661 9.38085 5.06251 9.51469V15.75C5.06251 15.8992 5.12177 16.0423 5.22726 16.1477C5.33275 16.2532 5.47582 16.3125 5.62501 16.3125C5.77419 16.3125 5.91726 16.2532 6.02275 16.1477C6.12824 16.0423 6.18751 15.8992 6.18751 15.75V9.51469C6.9734 9.38085 7.6867 8.97353 8.20135 8.3647C8.716 7.75587 8.99888 6.98471 9.00001 6.1875C8.99991 6.15664 8.99732 6.12584 8.99227 6.09539L8.42977 2.72039Z" fill="#6F798C"/>
</svg>
