<svg width="32" height="32" viewBox="0 0 32 32" fill="none" xmlns="http://www.w3.org/2000/svg">
<path d="M12.111 10.1797C13.2622 9.41054 14.6155 9 16 9C17.8559 9.00196 19.6353 9.74009 20.9476 11.0524C22.2599 12.3647 22.998 14.1441 23 16C23 17.3845 22.5895 18.7378 21.8203 19.889C21.0511 21.0401 19.9579 21.9373 18.6788 22.4672C17.3997 22.997 15.9922 23.1356 14.6344 22.8655C13.2765 22.5954 12.0292 21.9287 11.0503 20.9497C10.0713 19.9708 9.4046 18.7235 9.13451 17.3656C8.86441 16.0078 9.00303 14.6003 9.53285 13.3212C10.0627 12.0421 10.9599 10.9489 12.111 10.1797Z" fill="#6f798c"/>
<path fill-rule="evenodd" clip-rule="evenodd" d="M8.77759 5.1909C10.9154 3.76244 13.4288 3 16 3C19.4467 3.00364 22.7512 4.37445 25.1884 6.81163C27.6256 9.24882 28.9964 12.5533 29 16C29 18.5712 28.2376 21.0846 26.8091 23.2224C25.3807 25.3603 23.3503 27.0265 20.9749 28.0104C18.5995 28.9944 15.9856 29.2518 13.4638 28.7502C10.9421 28.2486 8.6257 27.0105 6.80762 25.1924C4.98953 23.3743 3.75141 21.0579 3.2498 18.5362C2.74819 16.0144 3.00563 13.4006 3.98957 11.0251C4.97351 8.64968 6.63975 6.61935 8.77759 5.1909ZM9.88873 25.1462C11.6977 26.3549 13.8244 27 16 27C18.9164 26.9967 21.7123 25.8367 23.7745 23.7745C25.8367 21.7123 26.9967 18.9164 27 16C27 13.8244 26.3549 11.6977 25.1462 9.88873C23.9375 8.07979 22.2195 6.66989 20.2095 5.83733C18.1995 5.00476 15.9878 4.78692 13.854 5.21136C11.7202 5.6358 9.76021 6.68345 8.22183 8.22183C6.68345 9.7602 5.6358 11.7202 5.21137 13.854C4.78693 15.9878 5.00477 18.1995 5.83733 20.2095C6.66989 22.2195 8.07979 23.9375 9.88873 25.1462Z" fill="#6f798c"/>
</svg>
