<svg width="18" height="18" viewBox="0 0 18 18" fill="none" xmlns="http://www.w3.org/2000/svg">
<path d="M12.4741 5.66297C12.3897 5.54015 12.3574 5.38881 12.3844 5.2422C12.4114 5.0956 12.4956 4.96572 12.6183 4.88109C13.3495 4.37625 14.4942 4.37625 15.2255 4.88109C15.577 5.12508 16.2014 5.12508 16.5558 4.88109C16.6786 4.80307 16.8268 4.77566 16.9694 4.80462C17.112 4.83358 17.2378 4.91666 17.3204 5.03641C17.4031 5.15617 17.4361 5.30328 17.4125 5.44685C17.389 5.59043 17.3108 5.7193 17.1942 5.80641C16.8043 6.05346 16.3522 6.18463 15.8906 6.18463C15.429 6.18463 14.9769 6.05346 14.587 5.80641C14.2355 5.56242 13.6111 5.56242 13.2567 5.80641C13.1959 5.84838 13.1274 5.87797 13.0552 5.89348C12.983 5.90899 12.9084 5.91012 12.8357 5.8968C12.763 5.88348 12.6937 5.85597 12.6317 5.81585C12.5696 5.77573 12.5161 5.72378 12.4741 5.66297ZM16.5558 7.13109C16.2042 7.37508 15.5798 7.37508 15.2255 7.13109C14.4942 6.62625 13.3495 6.62625 12.6183 7.13109C12.5544 7.17167 12.4994 7.22472 12.4565 7.28705C12.4136 7.34939 12.3838 7.41974 12.3687 7.49389C12.3536 7.56804 12.3537 7.64447 12.3689 7.7186C12.384 7.79272 12.414 7.86303 12.457 7.92531C12.4999 7.98759 12.555 8.04056 12.6189 8.08105C12.6829 8.12154 12.7543 8.14871 12.829 8.16095C12.9036 8.17319 12.98 8.17024 13.0535 8.15228C13.127 8.13431 13.1961 8.10171 13.2567 8.05641C13.6083 7.81242 14.2327 7.81242 14.587 8.05641C14.9769 8.30346 15.429 8.43463 15.8906 8.43463C16.3522 8.43463 16.8043 8.30346 17.1942 8.05641C17.3108 7.9693 17.389 7.84043 17.4125 7.69685C17.4361 7.55328 17.4031 7.40617 17.3204 7.28641C17.2378 7.16666 17.112 7.08358 16.9694 7.05462C16.8268 7.02566 16.6786 7.05307 16.5558 7.13109ZM10.6875 12.9375C10.6873 13.3583 10.5691 13.7706 10.3463 14.1275C10.1236 14.4845 9.80516 14.7719 9.42728 14.957C9.04941 15.1421 8.6272 15.2175 8.2086 15.1747C7.79001 15.1319 7.3918 14.9726 7.05921 14.7148C6.72663 14.457 6.47298 14.1112 6.32708 13.7165C6.18118 13.3218 6.14888 12.8942 6.23384 12.4821C6.31881 12.0699 6.51763 11.6899 6.80773 11.3851C7.09783 11.0803 7.46758 10.863 7.875 10.7578V3.375C7.875 3.22582 7.93426 3.08274 8.03975 2.97725C8.14524 2.87176 8.28832 2.8125 8.4375 2.8125C8.58668 2.8125 8.72976 2.87176 8.83525 2.97725C8.94074 3.08274 9 3.22582 9 3.375V10.7578C9.48281 10.8832 9.91038 11.1652 10.2157 11.5597C10.5211 11.9541 10.687 12.4387 10.6875 12.9375ZM9.5625 12.9375C9.5625 12.715 9.49652 12.4975 9.3729 12.3125C9.24929 12.1275 9.07359 11.9833 8.86802 11.8981C8.66245 11.813 8.43625 11.7907 8.21802 11.8341C7.9998 11.8775 7.79934 11.9847 7.64201 12.142C7.48467 12.2993 7.37753 12.4998 7.33412 12.718C7.29071 12.9363 7.31299 13.1625 7.39814 13.368C7.48328 13.5736 7.62748 13.7493 7.81248 13.8729C7.99749 13.9965 8.215 14.0625 8.4375 14.0625C8.73587 14.0625 9.02202 13.944 9.233 13.733C9.44397 13.522 9.5625 13.2359 9.5625 12.9375ZM12.9375 12.9375C12.937 13.6984 12.7436 14.4468 12.3753 15.1126C12.0071 15.7785 11.476 16.3401 10.8317 16.7449C10.1874 17.1497 9.45102 17.3846 8.69132 17.4275C7.93162 17.4704 7.17345 17.32 6.48768 16.9903C5.80191 16.6606 5.21094 16.1624 4.77002 15.5423C4.3291 14.9221 4.05262 14.2003 3.96645 13.4443C3.88028 12.6883 3.98722 11.9228 4.27727 11.2193C4.56732 10.5159 5.03102 9.89744 5.625 9.42188V3.375C5.625 2.62908 5.92132 1.91371 6.44876 1.38626C6.97621 0.858816 7.69158 0.5625 8.4375 0.5625C9.18342 0.5625 9.89879 0.858816 10.4262 1.38626C10.9537 1.91371 11.25 2.62908 11.25 3.375V9.42188C11.7766 9.84405 12.2017 10.3792 12.4938 10.9877C12.7859 11.5962 12.9375 12.2625 12.9375 12.9375ZM11.8125 12.9375C11.8121 12.3934 11.6803 11.8574 11.4284 11.3751C11.1764 10.8928 10.8118 10.4784 10.3655 10.1672C10.2908 10.1151 10.2299 10.0456 10.1881 9.96478C10.1462 9.88395 10.1245 9.79416 10.125 9.70312V3.375C10.125 2.92745 9.94721 2.49822 9.63074 2.18176C9.31428 1.86529 8.88505 1.6875 8.4375 1.6875C7.98995 1.6875 7.56073 1.86529 7.24426 2.18176C6.92779 2.49822 6.75 2.92745 6.75 3.375V9.70312C6.75001 9.79369 6.72815 9.88291 6.68629 9.96322C6.64442 10.0435 6.58378 10.1125 6.50953 10.1644C6.03329 10.4958 5.65054 10.9445 5.39825 11.467C5.14595 11.9895 5.03263 12.5682 5.06922 13.1473C5.10581 13.7264 5.29107 14.2863 5.60713 14.7729C5.92318 15.2595 6.35935 15.6564 6.87352 15.9252C7.3877 16.1941 7.96251 16.3259 8.54246 16.3079C9.12242 16.2898 9.68792 16.1226 10.1844 15.8222C10.6808 15.5219 11.0915 15.0987 11.3767 14.5933C11.6619 14.088 11.812 13.5177 11.8125 12.9375Z" fill="#6F798C"/>
</svg>
