<svg width="18" height="18" viewBox="0 0 18 18" fill="none" xmlns="http://www.w3.org/2000/svg">
<path d="M16.546 5.15884L12.8412 1.45478C12.7367 1.35029 12.6127 1.2674 12.4762 1.21084C12.3397 1.15429 12.1934 1.12518 12.0456 1.12518C11.8979 1.12518 11.7516 1.15429 11.6151 1.21084C11.4785 1.2674 11.3545 1.35029 11.25 1.45478L1.45411 11.25C1.34961 11.3545 1.26672 11.4785 1.21017 11.615C1.15362 11.7515 1.12451 11.8978 1.12451 12.0456C1.12451 12.1934 1.15362 12.3397 1.21017 12.4762C1.26672 12.6127 1.34961 12.7367 1.45411 12.8412L5.15887 16.5452C5.26334 16.6497 5.38737 16.7326 5.52388 16.7892C5.66039 16.8457 5.8067 16.8748 5.95446 16.8748C6.10222 16.8748 6.24853 16.8457 6.38504 16.7892C6.52155 16.7326 6.64558 16.6497 6.75004 16.5452L16.546 6.75001C16.6505 6.64554 16.7334 6.52151 16.7899 6.38501C16.8465 6.2485 16.8756 6.10219 16.8756 5.95443C16.8756 5.80667 16.8465 5.66036 16.7899 5.52385C16.7334 5.38734 16.6505 5.26331 16.546 5.15884ZM5.95411 15.75L2.25004 12.0452L4.50004 9.79525L6.35208 11.648C6.40434 11.7002 6.46638 11.7417 6.53467 11.77C6.60295 11.7983 6.67614 11.8128 6.75004 11.8128C6.82395 11.8128 6.89714 11.7983 6.96542 11.77C7.03371 11.7417 7.09575 11.7002 7.14801 11.648C7.20028 11.5957 7.24173 11.5337 7.27002 11.4654C7.2983 11.3971 7.31286 11.3239 7.31286 11.25C7.31286 11.1761 7.2983 11.1029 7.27002 11.0346C7.24173 10.9664 7.20028 10.9043 7.14801 10.852L5.29528 9.00001L6.75004 7.54525L8.60208 9.39798C8.70762 9.50353 8.85078 9.56283 9.00004 9.56283C9.14931 9.56283 9.29247 9.50353 9.39801 9.39798C9.50356 9.29243 9.56286 9.14928 9.56286 9.00001C9.56286 8.85075 9.50356 8.70759 9.39801 8.60204L7.54528 6.75001L9.00004 5.29525L10.8521 7.14798C10.9043 7.20024 10.9664 7.2417 11.0347 7.26998C11.1029 7.29827 11.1761 7.31283 11.25 7.31283C11.324 7.31283 11.3971 7.29827 11.4654 7.26998C11.5337 7.2417 11.5958 7.20024 11.648 7.14798C11.7003 7.09572 11.7417 7.03368 11.77 6.96539C11.7983 6.89711 11.8129 6.82392 11.8129 6.75001C11.8129 6.6761 11.7983 6.60292 11.77 6.53463C11.7417 6.46635 11.7003 6.40431 11.648 6.35204L9.79528 4.50001L12.0453 2.25001L15.75 5.95478L5.95411 15.75Z" fill="#6F798C"/>
</svg>
