<svg width="18" height="18" viewBox="0 0 18 18" fill="none" xmlns="http://www.w3.org/2000/svg">
<path d="M12.2344 3.35742C11.3659 2.35437 10.3884 1.45115 9.31992 0.664456C9.22534 0.598201 9.11266 0.56266 8.99719 0.56266C8.88171 0.56266 8.76903 0.598201 8.67445 0.664456C7.60799 1.45148 6.63238 2.35469 5.76562 3.35742C3.83273 5.57719 2.8125 7.91719 2.8125 10.125C2.8125 11.766 3.4644 13.3398 4.62478 14.5002C5.78516 15.6606 7.35897 16.3125 9 16.3125C10.641 16.3125 12.2148 15.6606 13.3752 14.5002C14.5356 13.3398 15.1875 11.766 15.1875 10.125C15.1875 7.91719 14.1673 5.57719 12.2344 3.35742ZM9 15.1875C7.6578 15.186 6.371 14.6522 5.42192 13.7031C4.47284 12.754 3.93899 11.4672 3.9375 10.125C3.9375 6.10102 7.83773 2.74219 9 1.82813C10.1623 2.74219 14.0625 6.09961 14.0625 10.125C14.061 11.4672 13.5272 12.754 12.5781 13.7031C11.629 14.6522 10.3422 15.186 9 15.1875ZM12.9298 10.7817C12.7839 11.5964 12.3919 12.3469 11.8066 12.9321C11.2213 13.5173 10.4708 13.9091 9.65602 14.0548C9.62509 14.0597 9.59382 14.0623 9.5625 14.0625C9.4214 14.0625 9.28547 14.0094 9.18166 13.9138C9.07786 13.8183 9.01376 13.6872 9.00208 13.5466C8.9904 13.406 9.03199 13.2661 9.1186 13.1547C9.20522 13.0433 9.33053 12.9686 9.46969 12.9452C10.6348 12.7491 11.6234 11.7605 11.8209 10.5933C11.8459 10.4462 11.9283 10.315 12.05 10.2286C12.1718 10.1422 12.3228 10.1077 12.4699 10.1327C12.6171 10.1577 12.7482 10.2401 12.8346 10.3618C12.921 10.4836 12.9555 10.6346 12.9305 10.7817H12.9298Z" fill="#6F798C"/>
</svg>
