<svg width="0" height="0" class="hidden">
      <symbol version="1.1" xmlns="http://www.w3.org/2000/svg" xmlns:xlink="http://www.w3.org/1999/xlink" viewBox="0 0 18 18" id="brush">
            <path d="M16.2169 1.78312C16.008 1.57414 15.7599 1.40836 15.4869 1.29525C15.2139 1.18215 14.9212 1.12393 14.6257 1.12393C14.3302 1.12393 14.0376 1.18215 13.7646 1.29525C13.4916 1.40836 13.2435 1.57414 13.0346 1.78312C13.0275 1.79015 13.0205 1.79719 13.0142 1.80492L9.15331 6.10664L8.50784 5.45906C8.35113 5.30227 8.16506 5.17789 7.96027 5.09303C7.75547 5.00817 7.53596 4.96449 7.31428 4.96449C7.0926 4.96449 6.8731 5.00817 6.6683 5.09303C6.46351 5.17789 6.27744 5.30227 6.12073 5.45906L0.728465 10.852C0.623055 10.9575 0.563843 11.1005 0.563843 11.2496C0.563843 11.3988 0.623055 11.5418 0.728465 11.6473L6.35346 17.2723C6.45894 17.3777 6.60196 17.4369 6.75108 17.4369C6.9002 17.4369 7.04322 17.3777 7.1487 17.2723L12.541 11.8828C12.6978 11.7261 12.8221 11.54 12.907 11.3352C12.9919 11.1304 13.0355 10.9109 13.0355 10.6893C13.0355 10.4676 12.9919 10.2481 12.907 10.0433C12.8221 9.83848 12.6978 9.65241 12.541 9.4957L11.8934 8.84883L16.1951 4.98797C16.2029 4.98148 16.2102 4.97443 16.2169 4.96687C16.4261 4.75791 16.5921 4.50976 16.7053 4.23661C16.8185 3.96347 16.8768 3.67068 16.8768 3.375C16.8768 3.07931 16.8185 2.78653 16.7053 2.51338C16.5921 2.24024 16.4261 1.99209 16.2169 1.78312ZM6.75003 16.0798L5.57721 14.9062L7.148 13.3348C7.24903 13.2284 7.30453 13.0868 7.30265 12.9401C7.30077 12.7935 7.24167 12.6533 7.13794 12.5496C7.03422 12.4459 6.89407 12.3868 6.7474 12.3849C6.60072 12.383 6.45911 12.4385 6.35276 12.5395L4.78128 14.1103L3.88971 13.2187L5.4605 11.6473C5.56153 11.5409 5.61703 11.3993 5.61515 11.2526C5.61327 11.106 5.55417 10.9658 5.45044 10.8621C5.34672 10.7584 5.20658 10.6993 5.0599 10.6974C4.91322 10.6955 4.77161 10.751 4.66526 10.852L3.09378 12.4228L1.92026 11.25L5.06253 8.10773L9.89229 12.9375L6.75003 16.0798ZM15.4308 4.15969L11.1417 8.0093C11.028 8.11142 10.9363 8.23564 10.8722 8.37438C10.8081 8.51312 10.7729 8.66347 10.7689 8.81625C10.7648 8.96903 10.7919 9.12104 10.8485 9.263C10.9051 9.40497 10.9901 9.53391 11.0982 9.64195L11.745 10.2895C11.8504 10.395 11.9096 10.538 11.9096 10.6871C11.9096 10.8363 11.8504 10.9793 11.745 11.0848L10.6903 12.1395L5.85846 7.3125L6.91315 6.25781C7.01863 6.1524 7.16165 6.09319 7.31077 6.09319C7.45989 6.09319 7.60291 6.1524 7.70839 6.25781L8.35596 6.90469C8.46401 7.01278 8.59295 7.09773 8.73491 7.15434C8.87688 7.21095 9.02889 7.23805 9.18167 7.23397C9.33445 7.22989 9.48479 7.19472 9.62353 7.13061C9.76227 7.06651 9.8865 6.9748 9.98862 6.86109L13.8382 2.57203C14.0509 2.36996 14.3341 2.25897 14.6275 2.26272C14.9209 2.26648 15.2011 2.38468 15.4086 2.59214C15.616 2.79959 15.7342 3.07987 15.738 3.37323C15.7418 3.66658 15.6308 3.9498 15.4287 4.1625L15.4308 4.15969Z" />
      </symbol>
      <symbol version="1.1" xmlns="http://www.w3.org/2000/svg" xmlns:xlink="http://www.w3.org/1999/xlink" viewBox="0 0 18 18" id="caret-down">
            <path d="M2.97708 10.852L8.60209 5.22702C8.65433 5.17472 8.71636 5.13323 8.78465 5.10493C8.85294 5.07662 8.92613 5.06205 9.00005 5.06205C9.07398 5.06205 9.14717 5.07662 9.21546 5.10493C9.28374 5.13323 9.34578 5.17472 9.39802 5.22702L15.023 10.852C15.1286 10.9576 15.1879 11.1007 15.1879 11.25C15.1879 11.3993 15.1286 11.5424 15.023 11.648C14.9175 11.7535 14.7743 11.8128 14.6251 11.8128C14.4758 11.8128 14.3326 11.7535 14.2271 11.648L9.00005 6.42023L3.77302 11.648C3.72076 11.7002 3.65872 11.7417 3.59043 11.77C3.52215 11.7982 3.44896 11.8128 3.37505 11.8128C3.30114 11.8128 3.22796 11.7982 3.15967 11.77C3.09139 11.7417 3.02935 11.7002 2.97708 11.648C2.92482 11.5957 2.88337 11.5337 2.85508 11.4654C2.8268 11.3971 2.81224 11.3239 2.81224 11.25C2.81224 11.1761 2.8268 11.1029 2.85508 11.0346C2.88337 10.9663 2.92482 10.9043 2.97708 10.852Z" fill="#404754"/>
      </symbol>
      <symbol version="1.1" xmlns="http://www.w3.org/2000/svg" xmlns:xlink="http://www.w3.org/1999/xlink" viewBox="0 0 18 18" id="clay">
            <path d="M9 1.6875C7.55373 1.6875 6.13993 2.11637 4.9374 2.91988C3.73486 3.72339 2.7976 4.86544 2.24413 6.20163C1.69067 7.53781 1.54586 9.00811 1.82801 10.4266C2.11017 11.8451 2.80661 13.148 3.82928 14.1707C4.85196 15.1934 6.15492 15.8898 7.57341 16.172C8.99189 16.4541 10.4622 16.3093 11.7984 15.7559C13.1346 15.2024 14.2766 14.2651 15.0801 13.0626C15.8836 11.8601 16.3125 10.4463 16.3125 9C16.3105 7.06123 15.5394 5.20246 14.1685 3.83154C12.7975 2.46063 10.9388 1.68955 9 1.6875ZM9.5625 2.83852C9.94331 2.87327 10.32 2.94389 10.6875 3.04945V14.9534C10.32 15.0589 9.94331 15.1295 9.5625 15.1643V2.83852ZM11.8125 3.48961C12.2134 3.69487 12.5907 3.94338 12.9375 4.2307V13.7693C12.5907 14.0566 12.2134 14.3051 11.8125 14.5104V3.48961ZM2.8125 9C2.81436 7.45692 3.392 5.97008 4.43238 4.83048C5.47276 3.69088 6.90098 2.98055 8.4375 2.83852V15.1615C6.90098 15.0195 5.47276 14.3091 4.43238 13.1695C3.392 12.0299 2.81436 10.5431 2.8125 9ZM14.0625 12.5536V5.44641C14.7946 6.48677 15.1875 7.72786 15.1875 9C15.1875 10.2721 14.7946 11.5132 14.0625 12.5536Z" />
      </symbol>
      <symbol version="1.1" xmlns="http://www.w3.org/2000/svg" xmlns:xlink="http://www.w3.org/1999/xlink" viewBox="0 0 18 18" id="cracks">
            <path fill-rule="evenodd" clip-rule="evenodd" d="M4.9374 2.91988C6.13993 2.11637 7.55373 1.6875 9 1.6875C10.9388 1.68955 12.7975 2.46063 14.1685 3.83154C15.5394 5.20246 16.3105 7.06123 16.3125 9C16.3125 10.4463 15.8836 11.8601 15.0801 13.0626C14.2766 14.2651 13.1346 15.2024 11.7984 15.7559C10.4622 16.3093 8.99189 16.4541 7.57341 16.172C6.15492 15.8898 4.85196 15.1934 3.82928 14.1707C2.80661 13.148 2.11017 11.8451 1.82801 10.4266C1.54586 9.00811 1.69067 7.53781 2.24413 6.20163C2.7976 4.86544 3.73486 3.72339 4.9374 2.91988ZM5.56241 14.1447C6.57994 14.8246 7.77623 15.1875 9 15.1875C9.57582 15.1868 10.1433 15.106 10.6875 14.9512V13.4465L7.79767 13.1576L8.11646 10.926L7.03109 10.0577L5.52036 9.49119L5.2691 11.25H3.23609C3.25148 11.2894 3.26728 11.3287 3.2835 11.3679C3.75182 12.4985 4.54488 13.4648 5.56241 14.1447ZM2.91563 10.125H4.2934L4.60464 7.94629L7.10573 8.88421L7.72321 8.01973L6.1875 7.80035V5.67017L4.52915 4.72255C3.71599 5.57246 3.16124 6.63737 2.93139 7.79288C2.7776 8.56608 2.77372 9.35747 2.91563 10.125ZM5.43365 3.94368C6.13748 3.44726 6.94053 3.10093 7.79288 2.93139C8.99314 2.69265 10.2372 2.81518 11.3679 3.2835C12.2813 3.66185 13.0875 4.25217 13.7221 5.00157L13.5803 6.27758L12.0192 5.75723L11.5434 7.18474L9.81433 5.70267L8.51988 6.99712L7.3125 6.82464V5.01731L5.43365 3.94368ZM14.6908 6.57106L14.5447 7.78491L12.7308 7.18026L12.0816 9.12775L9.87317 7.23482L9.14942 7.95857L8.07982 9.456L9.32104 10.449L9.07733 12.1549L11.8125 12.4284V14.5086C12.3837 14.2167 12.9112 13.8352 13.3732 13.3732C14.5331 12.2132 15.1856 10.6405 15.1875 9C15.1875 8.1612 15.017 7.33532 14.6908 6.57106Z" />
      </symbol>
      <symbol version="1.1" xmlns="http://www.w3.org/2000/svg" xmlns:xlink="http://www.w3.org/1999/xlink" viewBox="0 0 18 18" id="cup">
            <path d="M17.4375 8.4375V9C17.4373 9.71546 17.1644 10.4039 16.6744 10.9253C16.1844 11.4466 15.5142 11.7616 14.8001 11.8062C14.4164 12.8915 13.7631 13.8615 12.9016 14.625H14.625C14.7742 14.625 14.9173 14.6843 15.0227 14.7898C15.1282 14.8952 15.1875 15.0383 15.1875 15.1875C15.1875 15.3367 15.1282 15.4798 15.0227 15.5852C14.9173 15.6907 14.7742 15.75 14.625 15.75H2.25C2.10082 15.75 1.95774 15.6907 1.85225 15.5852C1.74676 15.4798 1.6875 15.3367 1.6875 15.1875C1.6875 15.0383 1.74676 14.8952 1.85225 14.7898C1.95774 14.6843 2.10082 14.625 2.25 14.625H3.97547C3.25779 13.9909 2.68277 13.2119 2.28838 12.3392C1.89398 11.4665 1.68918 10.5201 1.6875 9.5625V6.1875C1.6875 6.03832 1.74676 5.89524 1.85225 5.78975C1.95774 5.68426 2.10082 5.625 2.25 5.625H14.625C15.3709 5.625 16.0863 5.92132 16.6137 6.44876C17.1412 6.97621 17.4375 7.69158 17.4375 8.4375ZM14.0625 6.75H2.8125V9.5625C2.81467 10.6186 3.11314 11.653 3.67397 12.5479C4.2348 13.4429 5.03549 14.1625 5.985 14.625H10.89C11.8395 14.1625 12.6402 13.4429 13.201 12.5479C13.7619 11.653 14.0603 10.6186 14.0625 9.5625V6.75ZM16.3125 8.4375C16.3124 8.08862 16.2042 7.74836 16.0027 7.46353C15.8012 7.1787 15.5164 6.96332 15.1875 6.84703V9.5625C15.1871 9.91573 15.1589 10.2684 15.1031 10.6172C15.4521 10.5141 15.7585 10.3009 15.9764 10.0095C16.1944 9.71801 16.3122 9.36392 16.3125 9V8.4375Z" />
      </symbol>
      <symbol version="1.1" xmlns="http://www.w3.org/2000/svg" xmlns:xlink="http://www.w3.org/1999/xlink" viewBox="0 0 18 18" id="fire">
            <path d="M12.9298 10.7817C12.7839 11.5964 12.3919 12.3469 11.8066 12.9321C11.2213 13.5173 10.4708 13.9091 9.65602 14.0548C9.62509 14.0597 9.59382 14.0623 9.5625 14.0625C9.4214 14.0625 9.28547 14.0094 9.18166 13.9138C9.07786 13.8183 9.01376 13.6872 9.00208 13.5466C8.9904 13.406 9.03199 13.2661 9.1186 13.1547C9.20522 13.0433 9.33053 12.9686 9.46969 12.9452C10.6348 12.7491 11.6234 11.7605 11.8209 10.5933C11.8459 10.4462 11.9283 10.315 12.05 10.2286C12.1718 10.1422 12.3228 10.1078 12.4699 10.1327C12.6171 10.1577 12.7482 10.2401 12.8346 10.3619C12.921 10.4836 12.9555 10.6346 12.9305 10.7817H12.9298ZM15.1875 10.125C15.1875 11.766 14.5356 13.3399 13.3752 14.5002C12.2148 15.6606 10.641 16.3125 9 16.3125C7.35897 16.3125 5.78516 15.6606 4.62478 14.5002C3.4644 13.3399 2.8125 11.766 2.8125 10.125C2.8125 8.16188 3.58594 6.15446 5.10891 4.15899C5.15711 4.09581 5.21816 4.04356 5.28803 4.00568C5.3579 3.9678 5.43501 3.94516 5.51426 3.93925C5.59352 3.93334 5.67313 3.94429 5.74784 3.97138C5.82256 3.99847 5.89068 4.04108 5.94773 4.09641L7.64367 5.74243L9.19055 1.49485C9.22145 1.41014 9.27227 1.33409 9.33872 1.27313C9.40517 1.21217 9.4853 1.16807 9.57236 1.14457C9.65942 1.12106 9.75086 1.11883 9.83896 1.13807C9.92706 1.1573 10.0093 1.19744 10.0786 1.25509C11.6163 2.53126 15.1875 5.94493 15.1875 10.125ZM14.0625 10.125C14.0625 6.88431 11.546 4.08376 9.96961 2.64868L8.40375 6.94266C8.37161 7.03086 8.31792 7.10961 8.24755 7.17173C8.17719 7.23386 8.0924 7.27739 8.0009 7.29836C7.90941 7.31933 7.81412 7.31707 7.72373 7.29179C7.63333 7.2665 7.5507 7.219 7.48336 7.1536L5.62922 5.35501C4.50633 6.97571 3.9375 8.57813 3.9375 10.125C3.9375 11.4677 4.47087 12.7553 5.42027 13.7047C6.36967 14.6541 7.65734 15.1875 9 15.1875C10.3427 15.1875 11.6303 14.6541 12.5797 13.7047C13.5291 12.7553 14.0625 11.4677 14.0625 10.125Z" />
      </symbol>
      <symbol version="1.1" xmlns="http://www.w3.org/2000/svg" xmlns:xlink="http://www.w3.org/1999/xlink" viewBox="0 0 18 18" id="foodsafe">
            <path d="M5.06251 6.1875V2.8125C5.06251 2.66332 5.12177 2.52024 5.22726 2.41475C5.33275 2.30926 5.47582 2.25 5.62501 2.25C5.77419 2.25 5.91726 2.30926 6.02275 2.41475C6.12824 2.52024 6.18751 2.66332 6.18751 2.8125V6.1875C6.18751 6.33669 6.12824 6.47976 6.02275 6.58525C5.91726 6.69074 5.77419 6.75 5.62501 6.75C5.47582 6.75 5.33275 6.69074 5.22726 6.58525C5.12177 6.47976 5.06251 6.33669 5.06251 6.1875ZM15.1875 2.8125V15.75C15.1875 15.8992 15.1282 16.0423 15.0228 16.1477C14.9173 16.2532 14.7742 16.3125 14.625 16.3125C14.4758 16.3125 14.3327 16.2532 14.2273 16.1477C14.1218 16.0423 14.0625 15.8992 14.0625 15.75V12.375H10.6875C10.5383 12.375 10.3952 12.3157 10.2898 12.2102C10.1843 12.1048 10.125 11.9617 10.125 11.8125C10.1511 10.4651 10.3213 9.12434 10.6327 7.81313C11.3203 4.96617 12.6239 3.05789 14.4035 2.2957C14.4891 2.25907 14.5823 2.24422 14.675 2.25249C14.7677 2.26077 14.8569 2.29191 14.9346 2.34312C15.0123 2.39434 15.0761 2.46402 15.1202 2.54594C15.1643 2.62786 15.1875 2.71945 15.1875 2.8125ZM14.0625 3.78985C11.8006 5.51742 11.3576 9.72563 11.2711 11.25H14.0625V3.78985ZM8.42977 2.72039C8.41875 2.64653 8.39314 2.57561 8.35442 2.51175C8.31571 2.44789 8.26466 2.39238 8.20427 2.34846C8.14388 2.30454 8.07534 2.27308 8.00266 2.25592C7.92998 2.23877 7.85461 2.23625 7.78095 2.24853C7.70729 2.26081 7.63681 2.28763 7.57362 2.32743C7.51044 2.36723 7.45581 2.41921 7.41292 2.48035C7.37004 2.54149 7.33976 2.61055 7.32385 2.68351C7.30793 2.75647 7.30671 2.83187 7.32024 2.90531L7.87501 6.2318C7.87501 6.82854 7.63795 7.40083 7.216 7.82279C6.79404 8.24475 6.22174 8.4818 5.62501 8.4818C5.02827 8.4818 4.45597 8.24475 4.03401 7.82279C3.61206 7.40083 3.37501 6.82854 3.37501 6.2318L3.92907 2.90531C3.9426 2.83187 3.94138 2.75647 3.92546 2.68351C3.90955 2.61055 3.87927 2.54149 3.83638 2.48035C3.7935 2.41921 3.73887 2.36723 3.67568 2.32743C3.6125 2.28763 3.54202 2.26081 3.46836 2.24853C3.3947 2.23625 3.31933 2.23877 3.24665 2.25592C3.17397 2.27308 3.10543 2.30454 3.04504 2.34846C2.98464 2.39238 2.9336 2.44789 2.89488 2.51175C2.85617 2.57561 2.83055 2.64653 2.81954 2.72039L2.25704 6.09539C2.25222 6.12586 2.24987 6.15666 2.25001 6.1875C2.25113 6.98471 2.53401 7.75587 3.04866 8.3647C3.56331 8.97353 4.27661 9.38085 5.06251 9.51469V15.75C5.06251 15.8992 5.12177 16.0423 5.22726 16.1477C5.33275 16.2532 5.47582 16.3125 5.62501 16.3125C5.77419 16.3125 5.91726 16.2532 6.02275 16.1477C6.12824 16.0423 6.18751 15.8992 6.18751 15.75V9.51469C6.9734 9.38085 7.6867 8.97353 8.20135 8.3647C8.716 7.75587 8.99888 6.98471 9.00001 6.1875C8.99991 6.15664 8.99732 6.12584 8.99227 6.09539L8.42977 2.72039Z" />
      </symbol>
      <symbol version="1.1" xmlns="http://www.w3.org/2000/svg" xmlns:xlink="http://www.w3.org/1999/xlink" viewBox="0 0 18 18" id="ruler">
            <path d="M12.4741 5.66297C12.3897 5.54015 12.3574 5.38881 12.3844 5.2422C12.4114 5.0956 12.4956 4.96572 12.6183 4.88109C13.3495 4.37625 14.4942 4.37625 15.2255 4.88109C15.577 5.12508 16.2014 5.12508 16.5558 4.88109C16.6786 4.80307 16.8268 4.77566 16.9694 4.80462C17.112 4.83358 17.2378 4.91666 17.3204 5.03641C17.4031 5.15617 17.4361 5.30328 17.4125 5.44685C17.389 5.59043 17.3108 5.7193 17.1942 5.80641C16.8043 6.05346 16.3522 6.18463 15.8906 6.18463C15.429 6.18463 14.9769 6.05346 14.587 5.80641C14.2355 5.56242 13.6111 5.56242 13.2567 5.80641C13.1959 5.84838 13.1274 5.87797 13.0552 5.89348C12.983 5.90899 12.9084 5.91012 12.8357 5.8968C12.763 5.88348 12.6937 5.85597 12.6317 5.81585C12.5696 5.77573 12.5161 5.72378 12.4741 5.66297ZM16.5558 7.13109C16.2042 7.37508 15.5798 7.37508 15.2255 7.13109C14.4942 6.62625 13.3495 6.62625 12.6183 7.13109C12.5544 7.17167 12.4994 7.22472 12.4565 7.28705C12.4136 7.34939 12.3838 7.41974 12.3687 7.49389C12.3536 7.56804 12.3537 7.64447 12.3689 7.7186C12.384 7.79272 12.414 7.86303 12.457 7.92531C12.4999 7.98759 12.555 8.04056 12.6189 8.08105C12.6829 8.12154 12.7543 8.14871 12.829 8.16095C12.9036 8.17319 12.98 8.17024 13.0535 8.15228C13.127 8.13431 13.1961 8.10171 13.2567 8.05641C13.6083 7.81242 14.2327 7.81242 14.587 8.05641C14.9769 8.30346 15.429 8.43463 15.8906 8.43463C16.3522 8.43463 16.8043 8.30346 17.1942 8.05641C17.3108 7.9693 17.389 7.84043 17.4125 7.69685C17.4361 7.55328 17.4031 7.40617 17.3204 7.28641C17.2378 7.16666 17.112 7.08358 16.9694 7.05462C16.8268 7.02566 16.6786 7.05307 16.5558 7.13109ZM10.6875 12.9375C10.6873 13.3583 10.5691 13.7706 10.3463 14.1275C10.1236 14.4845 9.80516 14.7719 9.42728 14.957C9.04941 15.1421 8.6272 15.2175 8.2086 15.1747C7.79001 15.1319 7.3918 14.9726 7.05921 14.7148C6.72663 14.457 6.47298 14.1112 6.32708 13.7165C6.18118 13.3218 6.14888 12.8942 6.23384 12.4821C6.31881 12.0699 6.51763 11.6899 6.80773 11.3851C7.09783 11.0803 7.46758 10.863 7.875 10.7578V3.375C7.875 3.22582 7.93426 3.08274 8.03975 2.97725C8.14524 2.87176 8.28832 2.8125 8.4375 2.8125C8.58668 2.8125 8.72976 2.87176 8.83525 2.97725C8.94074 3.08274 9 3.22582 9 3.375V10.7578C9.48281 10.8832 9.91038 11.1652 10.2157 11.5597C10.5211 11.9541 10.687 12.4387 10.6875 12.9375ZM9.5625 12.9375C9.5625 12.715 9.49652 12.4975 9.3729 12.3125C9.24929 12.1275 9.07359 11.9833 8.86802 11.8981C8.66245 11.813 8.43625 11.7907 8.21802 11.8341C7.9998 11.8775 7.79934 11.9847 7.64201 12.142C7.48467 12.2993 7.37753 12.4998 7.33412 12.718C7.29071 12.9363 7.31299 13.1625 7.39814 13.368C7.48328 13.5736 7.62748 13.7493 7.81248 13.8729C7.99749 13.9965 8.215 14.0625 8.4375 14.0625C8.73587 14.0625 9.02202 13.944 9.233 13.733C9.44397 13.522 9.5625 13.2359 9.5625 12.9375ZM12.9375 12.9375C12.937 13.6984 12.7436 14.4468 12.3753 15.1126C12.0071 15.7785 11.476 16.3401 10.8317 16.7449C10.1874 17.1497 9.45102 17.3846 8.69132 17.4275C7.93162 17.4704 7.17345 17.32 6.48768 16.9903C5.80191 16.6606 5.21094 16.1624 4.77002 15.5423C4.3291 14.9221 4.05262 14.2003 3.96645 13.4443C3.88028 12.6883 3.98722 11.9228 4.27727 11.2193C4.56732 10.5159 5.03102 9.89744 5.625 9.42188V3.375C5.625 2.62908 5.92132 1.91371 6.44876 1.38626C6.97621 0.858816 7.69158 0.5625 8.4375 0.5625C9.18342 0.5625 9.89879 0.858816 10.4262 1.38626C10.9537 1.91371 11.25 2.62908 11.25 3.375V9.42188C11.7766 9.84405 12.2017 10.3792 12.4938 10.9877C12.7859 11.5962 12.9375 12.2625 12.9375 12.9375ZM11.8125 12.9375C11.8121 12.3934 11.6803 11.8574 11.4284 11.3751C11.1764 10.8928 10.8118 10.4784 10.3655 10.1672C10.2908 10.1151 10.2299 10.0456 10.1881 9.96478C10.1462 9.88395 10.1245 9.79416 10.125 9.70312V3.375C10.125 2.92745 9.94721 2.49822 9.63074 2.18176C9.31428 1.86529 8.88505 1.6875 8.4375 1.6875C7.98995 1.6875 7.56073 1.86529 7.24426 2.18176C6.92779 2.49822 6.75 2.92745 6.75 3.375V9.70312C6.75001 9.79369 6.72815 9.88291 6.68629 9.96322C6.64442 10.0435 6.58378 10.1125 6.50953 10.1644C6.03329 10.4958 5.65054 10.9445 5.39825 11.467C5.14595 11.9895 5.03263 12.5682 5.06922 13.1473C5.10581 13.7264 5.29107 14.2863 5.60713 14.7729C5.92318 15.2595 6.35935 15.6564 6.87352 15.9252C7.3877 16.1941 7.96251 16.3259 8.54246 16.3079C9.12242 16.2898 9.68792 16.1226 10.1844 15.8222C10.6808 15.5219 11.0915 15.0987 11.3767 14.5933C11.6619 14.088 11.812 13.5177 11.8125 12.9375Z" />
      </symbol>
      <symbol version="1.1" xmlns="http://www.w3.org/2000/svg" xmlns:xlink="http://www.w3.org/1999/xlink" viewBox="0 0 18 18" id="temperature">
            <path d="M16.546 5.15884L12.8412 1.45478C12.7367 1.35029 12.6127 1.2674 12.4762 1.21084C12.3397 1.15429 12.1934 1.12518 12.0456 1.12518C11.8979 1.12518 11.7516 1.15429 11.6151 1.21084C11.4785 1.2674 11.3545 1.35029 11.25 1.45478L1.45411 11.25C1.34961 11.3545 1.26672 11.4785 1.21017 11.615C1.15362 11.7515 1.12451 11.8978 1.12451 12.0456C1.12451 12.1934 1.15362 12.3397 1.21017 12.4762C1.26672 12.6127 1.34961 12.7367 1.45411 12.8412L5.15887 16.5452C5.26334 16.6497 5.38737 16.7326 5.52388 16.7892C5.66039 16.8457 5.8067 16.8748 5.95446 16.8748C6.10222 16.8748 6.24853 16.8457 6.38504 16.7892C6.52155 16.7326 6.64558 16.6497 6.75004 16.5452L16.546 6.75001C16.6505 6.64554 16.7334 6.52151 16.7899 6.38501C16.8465 6.2485 16.8756 6.10219 16.8756 5.95443C16.8756 5.80667 16.8465 5.66036 16.7899 5.52385C16.7334 5.38734 16.6505 5.26331 16.546 5.15884ZM5.95411 15.75L2.25004 12.0452L4.50004 9.79525L6.35208 11.648C6.40434 11.7002 6.46638 11.7417 6.53467 11.77C6.60295 11.7983 6.67614 11.8128 6.75004 11.8128C6.82395 11.8128 6.89714 11.7983 6.96542 11.77C7.03371 11.7417 7.09575 11.7002 7.14801 11.648C7.20028 11.5957 7.24173 11.5337 7.27002 11.4654C7.2983 11.3971 7.31286 11.3239 7.31286 11.25C7.31286 11.1761 7.2983 11.1029 7.27002 11.0346C7.24173 10.9664 7.20028 10.9043 7.14801 10.852L5.29528 9.00001L6.75004 7.54525L8.60208 9.39798C8.70762 9.50353 8.85078 9.56283 9.00004 9.56283C9.14931 9.56283 9.29247 9.50353 9.39801 9.39798C9.50356 9.29243 9.56286 9.14928 9.56286 9.00001C9.56286 8.85075 9.50356 8.70759 9.39801 8.60204L7.54528 6.75001L9.00004 5.29525L10.8521 7.14798C10.9043 7.20024 10.9664 7.2417 11.0347 7.26998C11.1029 7.29827 11.1761 7.31283 11.25 7.31283C11.324 7.31283 11.3971 7.29827 11.4654 7.26998C11.5337 7.2417 11.5958 7.20024 11.648 7.14798C11.7003 7.09572 11.7417 7.03368 11.77 6.96539C11.7983 6.89711 11.8129 6.82392 11.8129 6.75001C11.8129 6.6761 11.7983 6.60292 11.77 6.53463C11.7417 6.46635 11.7003 6.40431 11.648 6.35204L9.79528 4.50001L12.0453 2.25001L15.75 5.95478L5.95411 15.75Z" />
      </symbol>
      <symbol version="1.1" xmlns="http://www.w3.org/2000/svg" xmlns:xlink="http://www.w3.org/1999/xlink" viewBox="0 0 18 18" id="waterdrop">
            <path d="M12.2344 3.35742C11.3659 2.35437 10.3884 1.45115 9.31992 0.664456C9.22534 0.598201 9.11266 0.56266 8.99719 0.56266C8.88171 0.56266 8.76903 0.598201 8.67445 0.664456C7.60799 1.45148 6.63238 2.35469 5.76562 3.35742C3.83273 5.57719 2.8125 7.91719 2.8125 10.125C2.8125 11.766 3.4644 13.3398 4.62478 14.5002C5.78516 15.6606 7.35897 16.3125 9 16.3125C10.641 16.3125 12.2148 15.6606 13.3752 14.5002C14.5356 13.3398 15.1875 11.766 15.1875 10.125C15.1875 7.91719 14.1673 5.57719 12.2344 3.35742ZM9 15.1875C7.6578 15.186 6.371 14.6522 5.42192 13.7031C4.47284 12.754 3.93899 11.4672 3.9375 10.125C3.9375 6.10102 7.83773 2.74219 9 1.82813C10.1623 2.74219 14.0625 6.09961 14.0625 10.125C14.061 11.4672 13.5272 12.754 12.5781 13.7031C11.629 14.6522 10.3422 15.186 9 15.1875ZM12.9298 10.7817C12.7839 11.5964 12.3919 12.3469 11.8066 12.9321C11.2213 13.5173 10.4708 13.9091 9.65602 14.0548C9.62509 14.0597 9.59382 14.0623 9.5625 14.0625C9.4214 14.0625 9.28547 14.0094 9.18166 13.9138C9.07786 13.8183 9.01376 13.6872 9.00208 13.5466C8.9904 13.406 9.03199 13.2661 9.1186 13.1547C9.20522 13.0433 9.33053 12.9686 9.46969 12.9452C10.6348 12.7491 11.6234 11.7605 11.8209 10.5933C11.8459 10.4462 11.9283 10.315 12.05 10.2286C12.1718 10.1422 12.3228 10.1077 12.4699 10.1327C12.6171 10.1577 12.7482 10.2401 12.8346 10.3618C12.921 10.4836 12.9555 10.6346 12.9305 10.7817H12.9298Z" />
      </symbol>
      
</svg>