<svg width="63" height="58" viewBox="0 0 63 58" fill="none" xmlns="http://www.w3.org/2000/svg">
<circle cx="32" cy="32" r="25" stroke="#9F9998" stroke-width="2"/>
<path d="M32 57C28.5655 57 25.5814 54.5105 23.4022 49.9534C21.2353 45.4222 20 39.081 20 32C20 24.9733 21.7147 18.6359 24.1331 14.0844C25.3429 11.8075 26.7113 10.0103 28.0969 8.795C29.4898 7.57324 30.827 7 32 7C45.8071 7 57 18.1929 57 32C57 45.8071 45.8071 57 32 57Z" stroke="#9F9998" stroke-width="2"/>
<path d="M32 7C35.4345 7 38.4186 9.48948 40.5978 14.0466C42.7647 18.5778 44 24.919 44 32C44 39.0267 42.2853 45.3641 39.8669 49.9156C38.6571 52.1925 37.2887 53.9897 35.9031 55.205C34.5102 56.4268 33.173 57 32 57C18.1929 57 7 45.8071 7 32C7 18.1929 18.1929 7 32 7Z" stroke="#9F9998" stroke-width="2"/>
<path d="M57 32C57 35.4345 54.5105 38.4186 49.9534 40.5978C45.4222 42.7647 39.081 44 32 44C24.9733 44 18.6359 42.2853 14.0844 39.8669C11.8075 38.6571 10.0103 37.2887 8.795 35.9031C7.57324 34.5102 7 33.173 7 32C7 18.1929 18.1929 7 32 7C45.8071 7 57 18.1929 57 32Z" stroke="#9F9998" stroke-width="2"/>
<path d="M7 32C7 28.5655 9.48949 25.5814 14.0466 23.4021C18.5778 21.2353 24.919 20 32 20C39.0267 20 45.3641 21.7147 49.9156 24.1331C52.1925 25.3429 53.9897 26.7113 55.205 28.0969C56.4268 29.4898 57 30.827 57 32C57 45.8071 45.8071 57 32 57C18.1929 57 7 45.8071 7 32Z" stroke="#9F9998" stroke-width="2"/>
<path d="M58 32C58 33.5 54 20 32 20C7.5 19 6 33 6 32C6 17.6406 17.6406 6 32 6C46.3594 6 58 17.6406 58 32Z" fill="#9F9998"/>
<g filter="url(#filter0_f_125_38)">
<path d="M14 29.5C14 25.5 16.2 16.8 25 14M45 20.5C46.1667 21.8333 48.6 24.9 49 26.5" stroke="#D9D9D9" stroke-opacity="0.5" stroke-width="7" stroke-linecap="round"/>
</g>
<defs>
<filter id="filter0_f_125_38" x="0.5" y="0.499054" width="62.001" height="42.5009" filterUnits="userSpaceOnUse" color-interpolation-filters="sRGB">
<feFlood flood-opacity="0" result="BackgroundImageFix"/>
<feBlend mode="normal" in="SourceGraphic" in2="BackgroundImageFix" result="shape"/>
<feGaussianBlur stdDeviation="5" result="effect1_foregroundBlur_125_38"/>
</filter>
</defs>
</svg>
