<svg width="52" height="52" viewBox="0 0 52 52" fill="none" xmlns="http://www.w3.org/2000/svg">
<circle cx="26" cy="26" r="25" stroke="#9F9998" stroke-width="2"/>
<path d="M26 51C22.5655 51 19.5814 48.5105 17.4022 43.9534C15.2353 39.4222 14 33.081 14 26C14 18.9733 15.7147 12.6359 18.1331 8.08444C19.3429 5.80753 20.7113 4.01034 22.0969 2.795C23.4898 1.57324 24.827 0.999999 26 0.999999C39.8071 0.999999 51 12.1929 51 26C51 39.8071 39.8071 51 26 51Z" stroke="#9F9998" stroke-width="2"/>
<path d="M26 0.999999C29.4345 0.999999 32.4186 3.48948 34.5978 8.04664C36.7647 12.5778 38 18.919 38 26C38 33.0267 36.2853 39.3641 33.8669 43.9156C32.6571 46.1925 31.2887 47.9897 29.9031 49.205C28.5102 50.4268 27.173 51 26 51C12.1929 51 0.999999 39.8071 0.999999 26C0.999998 12.1929 12.1929 0.999999 26 0.999999Z" stroke="#9F9998" stroke-width="2"/>
<path d="M51 26C51 29.4345 48.5105 32.4186 43.9534 34.5978C39.4222 36.7647 33.081 38 26 38C18.9733 38 12.6359 36.2853 8.08444 33.8669C5.80753 32.6571 4.01034 31.2887 2.795 29.9031C1.57324 28.5102 1 27.173 1 26C1 12.1929 12.1929 1 26 1C39.8071 1 51 12.1929 51 26Z" stroke="#9F9998" stroke-width="2"/>
<path d="M1 26C1 22.5655 3.48949 19.5814 8.04664 17.4021C12.5778 15.2353 18.919 14 26 14C33.0267 14 39.3641 15.7147 43.9156 18.1331C46.1925 19.3429 47.9897 20.7113 49.205 22.0969C50.4268 23.4898 51 24.827 51 26C51 39.8071 39.8071 51 26 51C12.1929 51 1 39.8071 1 26Z" stroke="#9F9998" stroke-width="2"/>
</svg>
