<svg xmlns="http://www.w3.org/2000/svg" width="88.12" height="73.665" viewBox="0 0 88.12 73.665">
  <g id="Gruppe_18" data-name="Gruppe 18" transform="translate(-1471.924 -813.335)">
    <g id="Gruppe_14" data-name="Gruppe 14" transform="translate(79)">
      <g id="Ellipse_1" data-name="Ellipse 1" transform="translate(1401 821)" fill="#fff" stroke="#b1b1b1" stroke-width="2">
        <circle cx="33" cy="33" r="33" stroke="none"/>
        <circle cx="33" cy="33" r="32" fill="none"/>
      </g>
      <g id="Schnittmenge_1" data-name="Schnittmenge 1" transform="translate(1476 2131)" fill="#b1b1b1">
        <path d="M -10.01517009735107 -1277.000244140625 L -73.98453521728516 -1277.000244140625 C -73.86394500732422 -1280.96728515625 -73.02476501464844 -1284.816162109375 -71.48542785644531 -1288.455444335938 C -69.873779296875 -1292.265869140625 -67.56636810302734 -1295.688110351562 -64.62727355957031 -1298.627197265625 C -61.68817138671875 -1301.566284179688 -58.26592254638672 -1303.873657226562 -54.45557022094727 -1305.4853515625 C -50.51116943359375 -1307.153686523438 -46.32061004638672 -1307.999633789062 -42.00030136108398 -1307.999633789062 C -37.67977142333984 -1307.999633789062 -33.48903274536133 -1307.153686523438 -29.54449081420898 -1305.4853515625 C -25.73404121398926 -1303.873657226562 -22.31170082092285 -1301.566284179688 -19.3725414276123 -1298.627197265625 C -16.43340110778809 -1295.688110351562 -14.12595081329346 -1292.265869140625 -12.51428127288818 -1288.455444335938 C -10.97494697570801 -1284.816162109375 -10.13575649261475 -1280.96728515625 -10.01517009735107 -1277.000244140625 Z" stroke="none"/>
        <path d="M -11.06289672851562 -1278.000244140625 C -11.28275489807129 -1281.4794921875 -12.0780553817749 -1284.857177734375 -13.4352912902832 -1288.06591796875 C -14.99653148651123 -1291.757080078125 -17.23201179504395 -1295.072509765625 -20.07964134216309 -1297.920043945312 C -22.92728042602539 -1300.767700195312 -26.2427806854248 -1303.003173828125 -29.93404197692871 -1304.564331054688 C -33.7546501159668 -1306.180297851562 -37.8143196105957 -1306.999633789062 -42.00030136108398 -1306.999633789062 C -46.18605041503906 -1306.999633789062 -50.24555206298828 -1306.180297851562 -54.06602096557617 -1304.564331054688 C -57.75717163085938 -1303.003173828125 -61.07258224487305 -1300.767700195312 -63.92016220092773 -1297.920043945312 C -66.76773834228516 -1295.072509765625 -69.00320434570312 -1291.757080078125 -70.56443023681641 -1288.06591796875 C -71.92166137695312 -1284.857177734375 -72.71694946289062 -1281.4794921875 -72.93680572509766 -1278.000244140625 L -11.06289672851562 -1278.000244140625 M -9.000000953674316 -1276.000244140625 L -74.99970245361328 -1276.000244140625 C -74.99970245361328 -1294.225219726562 -60.22529983520508 -1308.999633789062 -42.00030136108398 -1308.999633789062 C -23.77440071105957 -1308.999633789062 -9.000000953674316 -1294.225219726562 -9.000000953674316 -1276.000244140625 Z" stroke="none" fill="#b1b1b1"/>
      </g>
      <g id="Ellipse_3" data-name="Ellipse 3" transform="translate(1420 887) rotate(-90)" fill="none" stroke="#b1b1b1" stroke-width="2">
        <ellipse cx="33" cy="14" rx="33" ry="14" stroke="none"/>
        <ellipse cx="33" cy="14" rx="32" ry="13" fill="none"/>
      </g>
      <g id="Ellipse_4" data-name="Ellipse 4" transform="translate(1401 836)" fill="none" stroke="#b1b1b1" stroke-width="2">
        <ellipse cx="33" cy="18" rx="33" ry="18" stroke="none"/>
        <ellipse cx="33" cy="18" rx="32" ry="17" fill="none"/>
      </g>
      <line id="Linie_1" data-name="Linie 1" x2="65.5" transform="translate(1401.5 854.5)" fill="none" stroke="#b1b1b1" stroke-width="2"/>
    </g>
    <path id="Pfad_4" data-name="Pfad 4" d="M1406.972,2166.7s-3.985-23.9,17.092-26.275" transform="translate(82.336 -1310.081)" fill="#fff" stroke="#fff" stroke-width="1" opacity="0.659"/>
    <path id="Pfad_5" data-name="Pfad 5" d="M1408.323,2152.586s.074-10.466,7.935-12.165" transform="translate(4098.272 693.649) rotate(120)" fill="#fff" stroke="#fff" stroke-width="1"/>
  </g>
</svg>
