<svg xmlns="http://www.w3.org/2000/svg" width="88.12" height="73.665" viewBox="0 0 88.12 73.665">
  <g id="Gruppe_17" data-name="Gruppe 17" transform="translate(-1549.194 -813.335)">
    <g id="Gruppe_15" data-name="Gruppe 15" transform="translate(158)">
      <g id="Ellipse_1" data-name="Ellipse 1" transform="translate(1401 821)" fill="#fff" stroke="#eb4826" stroke-width="2">
        <circle cx="33" cy="33" r="33" stroke="none"/>
        <circle cx="33" cy="33" r="32" fill="none"/>
      </g>
      <g id="Ellipse_3" data-name="Ellipse 3" transform="translate(1420 887) rotate(-90)" fill="none" stroke="#eb4826" stroke-width="2">
        <ellipse cx="33" cy="14" rx="33" ry="14" stroke="none"/>
        <ellipse cx="33" cy="14" rx="32" ry="13" fill="none"/>
      </g>
      <g id="Pfad_1" data-name="Pfad 1" transform="translate(1401 836)" fill="#eb4826">
        <path d="M 33 34.99999618530273 C 28.62058067321777 34.99999618530273 24.3745002746582 34.53269577026367 20.37972068786621 33.61106491088867 C 16.53878021240234 32.72492599487305 13.09510040283203 31.45953559875488 10.14433002471924 29.85002708435059 C 7.235360145568848 28.2633056640625 4.960700035095215 26.42751693725586 3.383549928665161 24.39362716674805 C 1.801939964294434 22.35397720336914 1 20.20285606384277 1 17.99999618530273 C 1 15.61813640594482 1.788400053977966 12.49770641326904 3.21995997428894 9.213526725769043 C 4.79065990447998 5.610156536102295 7.015870094299316 2.058876514434814 9.65503978729248 -1.056373476982117 C 12.67570972442627 -4.621963500976562 16.07743072509766 -7.455663681030273 19.76571083068848 -9.47877311706543 C 23.96451950073242 -11.78191375732422 28.41717910766602 -12.94970321655273 33 -12.94970321655273 C 37.58282089233398 -12.94970321655273 42.03548049926758 -11.78191375732422 46.23429107666016 -9.47877311706543 C 49.92256927490234 -7.455663681030273 53.32429122924805 -4.621963500976562 56.3449592590332 -1.056373476982117 C 58.984130859375 2.058876514434814 61.2093391418457 5.610156536102295 62.7800407409668 9.213526725769043 C 64.21160125732422 12.49770641326904 65 15.61813640594482 65 17.99999618530273 C 65 20.20285606384277 64.19805908203125 22.3539867401123 62.61645126342773 24.39362716674805 C 61.03929901123047 26.42751693725586 58.7646484375 28.2633056640625 55.85567092895508 29.85002708435059 C 52.90491104125977 31.45953559875488 49.46123123168945 32.72492599487305 45.62028884887695 33.61106491088867 C 41.6254997253418 34.53269577026367 37.37942123413086 34.99999618530273 33 34.99999618530273 Z" stroke="none"/>
        <path d="M 33 -11.94970321655273 C 28.58721923828125 -11.94970321655273 24.29637145996094 -10.82337188720703 20.24663925170898 -8.60200309753418 C 16.66609954833984 -6.638004302978516 13.35927963256836 -3.881803512573242 10.41804122924805 -0.4099826812744141 C 7.841011047363281 2.631925582885742 5.668941497802734 6.097856521606445 4.136661529541016 9.613116264343262 C 2.758808135986328 12.77405643463135 2 15.75257682800293 2 17.99999618530273 C 2 19.97572708129883 2.731369018554688 21.92068672180176 4.173801422119141 23.78083610534668 C 5.666011810302734 25.70518684387207 7.835891723632812 27.45178604125977 10.6231803894043 28.97212600708008 C 13.49404907226562 30.53805541992188 16.85226058959961 31.77098655700684 20.60451126098633 32.63665771484375 C 24.52568817138672 33.54130554199219 28.69612884521484 33.99999618530273 33 33.99999618530273 C 37.30387115478516 33.99999618530273 41.47431182861328 33.54130554199219 45.39547729492188 32.63665771484375 C 49.14773941040039 31.77098655700684 52.50595092773438 30.53805541992188 55.3768196105957 28.97212600708008 C 58.16410827636719 27.45178604125977 60.33399200439453 25.70518684387207 61.82619857788086 23.78083610534668 C 63.26863098144531 21.92068672180176 64 19.97572708129883 64 17.99999618530273 C 64 15.75257682800293 63.24118804931641 12.77405643463135 61.86333847045898 9.613116264343262 C 60.33105850219727 6.097856521606445 58.15898895263672 2.631925582885742 55.58195877075195 -0.4099826812744141 C 52.64072036743164 -3.881803512573242 49.33390045166016 -6.638004302978516 45.75336074829102 -8.60200309753418 C 41.70362854003906 -10.82337188720703 37.41278076171875 -11.94970321655273 33 -11.94970321655273 M 33 -13.94970321655273 C 53.28791046142578 -13.94970321655273 66 8.058876037597656 66 17.99999618530273 C 66 27.94112586975098 51.22539138793945 35.99999618530273 33 35.99999618530273 C 14.77460098266602 35.99999618530273 0 27.94112586975098 0 17.99999618530273 C 0 8.058876037597656 12.71208953857422 -13.94970321655273 33 -13.94970321655273 Z" stroke="none" fill="#eb4826"/>
      </g>
      <line id="Linie_1" data-name="Linie 1" x2="65.5" transform="translate(1401.5 854.5)" fill="none" stroke="#eb4826" stroke-width="2"/>
    </g>
    <path id="Pfad_6" data-name="Pfad 6" d="M1406.972,2166.7s-3.985-23.9,17.092-26.275" transform="translate(159.606 -1310.081)" fill="#fff" stroke="#fff" stroke-width="1" opacity="0.659"/>
    <path id="Pfad_7" data-name="Pfad 7" d="M1408.323,2152.586s.074-10.466,7.935-12.165" transform="translate(4175.542 693.649) rotate(120)" fill="#fff" stroke="#fff" stroke-width="1"/>
  </g>
</svg>
