<svg xmlns="http://www.w3.org/2000/svg" width="66" height="85.988" viewBox="0 0 66 85.988">
  <g id="Gruppe_33" data-name="Gruppe 33" transform="translate(-1644 -813.568)">
    <g id="Gruppe_22" data-name="Gruppe 22" transform="translate(3352 1708) rotate(180)">
      <g id="Gruppe_21" data-name="Gruppe 21" transform="translate(-94)">
        <g id="Pfad_8" data-name="Pfad 8" transform="translate(1736 821)" fill="#fff">
          <path d="M 33.00000381469727 65 C 28.24146270751953 65 25.30885314941406 59.74792861938477 23.68663215637207 55.34199142456055 C 22.59762191772461 52.38425827026367 21.7524528503418 48.89511871337891 21.17459297180176 44.97148132324219 C 20.61479187011719 41.17044830322266 20.33095169067383 37.14265823364258 20.33095169067383 33 C 20.33095169067383 28.85733985900879 20.61479187011719 24.82954978942871 21.17459297180176 21.02852058410645 C 21.7524528503418 17.10487937927246 22.59762191772461 13.6157398223877 23.68663215637207 10.65800952911377 C 25.30885314941406 6.25206995010376 28.24146270751953 1 33.00000381469727 1 C 37.32041168212891 1 41.51106262207031 1.845939993858337 45.45553207397461 3.514309883117676 C 49.26595306396484 5.125979900360107 52.68827056884766 7.433440208435059 55.62741088867188 10.37259006500244 C 58.56656265258789 13.31173038482666 60.8740234375 16.73405075073242 62.48569107055664 20.54446983337402 C 64.15406036376953 24.48893928527832 65 28.67959022521973 65 33 C 65 37.32041168212891 64.15406036376953 41.51105880737305 62.48569107055664 45.45553970336914 C 60.8740234375 49.26596069335938 58.56656265258789 52.68827056884766 55.62741088867188 55.62741851806641 C 52.68827056884766 58.56655883789062 49.26595306396484 60.87401962280273 45.45553207397461 62.48569107055664 C 41.51106262207031 64.15406036376953 37.32041168212891 65 33.00000381469727 65 Z" stroke="none"/>
          <path d="M 33.00000381469727 2 C 31.36178207397461 2 29.88070297241211 2.723220825195312 28.47213363647461 4.210971832275391 C 27.01048278808594 5.754791259765625 25.71613311767578 8.040138244628906 24.62504196166992 11.0035285949707 C 23.5598030090332 13.89672088623047 22.73176193237305 17.31863021850586 22.16392135620117 21.17422103881836 C 21.61120223999023 24.92716979980469 21.33095169067383 28.90594100952148 21.33095169067383 33 C 21.33095169067383 37.09406280517578 21.61120223999023 41.07283020019531 22.16392135620117 44.82578277587891 C 22.73176193237305 48.68136978149414 23.5598030090332 52.10327911376953 24.62504196166992 54.9964714050293 C 25.71613311767578 57.95986175537109 27.01048278808594 60.24520874023438 28.47213363647461 61.78903198242188 C 29.88070297241211 63.27677917480469 31.36178207397461 64 33.00000381469727 64 C 37.18585205078125 64 41.24544143676758 63.18064117431641 45.06598281860352 61.56468963623047 C 48.7572021484375 60.0034294128418 52.07268524169922 57.76794052124023 54.92031097412109 54.92031097412109 C 57.7679443359375 52.07268142700195 60.00343322753906 48.7572021484375 61.56468963623047 45.06597900390625 C 63.18064117431641 41.24543762207031 64 37.18585205078125 64 33 C 64 28.81414031982422 63.18064117431641 24.75455856323242 61.56468963623047 20.93400955200195 C 60.00343322753906 17.24279022216797 57.7679443359375 13.92731857299805 54.92031097412109 11.07968902587891 C 52.07268524169922 8.232059478759766 48.7572021484375 5.996570587158203 45.06598281860352 4.435310363769531 C 41.24544143676758 2.819358825683594 37.18585205078125 2 33.00000381469727 2 M 33.00000381469727 0 C 51.22539520263672 0 66 14.77460098266602 66 33 C 66 51.22539138793945 51.22539520263672 66 33.00000381469727 66 C 14.77460479736328 66 14.77460479736328 0 33.00000381469727 0 Z" stroke="none" fill="#b1b1b1"/>
        </g>
        <g id="Ellipse_3" data-name="Ellipse 3" transform="translate(1755 887) rotate(-90)" fill="none" stroke="#b1b1b1" stroke-width="2">
          <ellipse cx="33" cy="14" rx="33" ry="14" stroke="none"/>
          <ellipse cx="33" cy="14" rx="32" ry="13" fill="none"/>
        </g>
        <line id="Linie_1" data-name="Linie 1" x2="19.5" transform="translate(1782.5 854.5)" fill="none" stroke="#b1b1b1" stroke-width="2"/>
        <path id="Pfad_10" data-name="Pfad 10" d="M1779.842,2148.28c22.309,4.563,20.981,16.22,20.981,16.22s1.627,10.342-20.981,15.787" transform="translate(0 -1310)" fill="none" stroke="#b1b1b1" stroke-width="2"/>
        <g id="Ellipse_8" data-name="Ellipse 8" transform="translate(1759 826)" fill="#b1b1b1" stroke="#b1b1b1" stroke-width="2">
          <ellipse cx="10" cy="28" rx="10" ry="28" stroke="none"/>
          <ellipse cx="10" cy="28" rx="9" ry="27" fill="none"/>
        </g>
      </g>
      <path id="Pfad_11" data-name="Pfad 11" d="M1407.436,2157.959s1.964-9.471,23.041-11.842" transform="translate(-479.421 2284.871) rotate(-90)" fill="#38120b" stroke="#fff" stroke-width="1" opacity="0.659"/>
      <path id="Pfad_12" data-name="Pfad 12" d="M1412.1,2157.843s-9.365-20.03,11.738-13.177" transform="translate(1523.037 -1733.065) rotate(30)" fill="#38120b" stroke="#fff" stroke-width="1" opacity="0.149"/>
    </g>
    <rect id="Rechteck_33" data-name="Rechteck 33" width="66" height="66" transform="translate(1644 821)" fill="none"/>
  </g>
</svg>
