<?xml version="1.0" encoding="UTF-8"?><svg id="Ebene_1" xmlns="http://www.w3.org/2000/svg" viewBox="0 0 84.86 85.05"><defs><style>.cls-1,.cls-2{fill:#1d1d1b;}.cls-3{stroke-linejoin:round;}.cls-3,.cls-4{fill:none;stroke:#1d1d1b;stroke-linecap:round;stroke-width:2px;}.cls-4{stroke-miterlimit:10;}.cls-2{font-family:VioletSans-Regular, 'Violet Sans';font-size:9px;}</style></defs><text class="cls-2" transform="translate(18.48 48.95) rotate(-97.94)"><tspan x="0" y="0">P</tspan></text><text class="cls-2" transform="translate(17.65 43.47) rotate(-84.87)"><tspan x="0" y="0">A</tspan></text><text class="cls-2" transform="translate(18.18 37.45) rotate(-70.92)"><tspan x="0" y="0">S</tspan></text><text class="cls-2" transform="translate(20.12 31.72) rotate(-56.31)"><tspan x="0" y="0">C</tspan></text><text class="cls-2" transform="translate(23.69 26.37) rotate(-41.82)"><tspan x="0" y="0">A</tspan></text><text class="cls-2" transform="translate(28.33 22.3) rotate(-28.58)"><tspan x="0" y="0">L</tspan></text><text class="cls-2" transform="translate(32.86 19.8) rotate(-15.95)"><tspan x="0" y="0">E</tspan></text><text class="cls-2" transform="translate(38.51 18.34) rotate(-6.34)"><tspan x="0" y="0"> </tspan></text><text class="cls-2" transform="translate(40.97 18.08) rotate(-.53)"><tspan x="0" y="0"> </tspan></text><text class="cls-2" transform="translate(43.42 18.07) rotate(5.22)"><tspan x="0" y="0"> </tspan></text><text class="cls-2" transform="translate(45.77 18.12) rotate(15.11)"><tspan x="0" y="0">S</tspan></text><text class="cls-2" transform="translate(51.62 19.66) rotate(29.73)"><tspan x="0" y="0">C</tspan></text><text class="cls-2" transform="translate(57.37 22.91) rotate(45.47)"><tspan x="0" y="0">H</tspan></text><text class="cls-2" transform="translate(62.28 27.72) rotate(63.23)"><tspan x="0" y="0">M</tspan></text><text class="cls-2" transform="translate(65.82 35.49) rotate(75.98)"><tspan x="0" y="0">I</tspan></text><text class="cls-2" transform="translate(66.63 37.88) rotate(87.01)"><tspan x="0" y="0">D</tspan></text><text class="cls-2" transform="translate(66.9 44.49) rotate(100.48)"><tspan x="0" y="0">T</tspan></text><text class="cls-2" transform="translate(65.83 49.61) rotate(109.29)"><tspan x="0" y="0"> </tspan></text><text class="cls-2" transform="translate(65.01 51.93) rotate(115.02)"><tspan x="0" y="0"> </tspan></text><text class="cls-2" transform="translate(63.96 54.14) rotate(120.72)"><tspan x="0" y="0"> </tspan></text><text class="cls-2" transform="translate(62.94 56.25) rotate(131.25)"><tspan x="0" y="0">C</tspan></text><text class="cls-2" transform="translate(58.54 61.19) rotate(145.73)"><tspan x="0" y="0">E</tspan></text><text class="cls-2" transform="translate(53.8 64.46) rotate(159.66)"><tspan x="0" y="0">R</tspan></text><text class="cls-2" transform="translate(47.87 66.65) rotate(174.18)"><tspan x="0" y="0">A</tspan></text><text class="cls-2" transform="translate(41.83 67.45) rotate(-168.92)"><tspan x="0" y="0">M</tspan></text><text class="cls-2" transform="translate(33.54 65.48) rotate(-156.18)"><tspan x="0" y="0">I</tspan></text><text class="cls-2" transform="translate(31.15 64.63) rotate(-145.44)"><tspan x="0" y="0">C</tspan></text><text class="cls-2" transform="translate(25.72 60.85) rotate(-130.63)"><tspan x="0" y="0">S</tspan></text><g><path class="cls-4" d="M33.77,47.36s9.74,10.57,16.14,0"/><polyline class="cls-3" points="41.84 38.73 39.89 44.85 44.34 44.85"/><circle class="cls-1" cx="33.38" cy="38.17" r="1.34"/><circle class="cls-1" cx="51.25" cy="38.17" r="1.34"/></g></svg>